# Blender 4.5.4 LTS
# www.blender.org
mtllib cylinder.mtl
o Cylinder
v 0.000000 -0.500000 -0.500000
v 0.000000 0.500000 -0.500000
v 0.024534 -0.500000 -0.499397
v 0.024534 0.500000 -0.499398
v 0.049008 -0.500000 -0.497592
v 0.049008 0.500000 -0.497593
v 0.073365 -0.500000 -0.494588
v 0.073365 0.500000 -0.494589
v 0.097545 -0.500000 -0.490392
v 0.097545 0.500000 -0.490393
v 0.121490 -0.500000 -0.485015
v 0.121490 0.500000 -0.485016
v 0.145142 -0.500000 -0.478470
v 0.145142 0.500000 -0.478470
v 0.168445 -0.500000 -0.470772
v 0.168445 0.500000 -0.470772
v 0.191342 -0.500000 -0.461940
v 0.191342 0.500000 -0.461940
v 0.213777 -0.500000 -0.451994
v 0.213777 0.500000 -0.451995
v 0.235699 -0.500000 -0.440960
v 0.235699 0.500000 -0.440961
v 0.257051 -0.500000 -0.428864
v 0.257051 0.500000 -0.428865
v 0.277785 -0.500000 -0.415735
v 0.277785 0.500000 -0.415735
v 0.297850 -0.500000 -0.401604
v 0.297850 0.500000 -0.401604
v 0.317196 -0.500000 -0.386505
v 0.317196 0.500000 -0.386505
v 0.335779 -0.500000 -0.370475
v 0.335779 0.500000 -0.370476
v 0.353554 -0.500000 -0.353553
v 0.353554 0.500000 -0.353554
v 0.370476 -0.500000 -0.335779
v 0.370476 0.500000 -0.335780
v 0.386505 -0.500000 -0.317196
v 0.386505 0.500000 -0.317197
v 0.401604 -0.500000 -0.297849
v 0.401604 0.500000 -0.297850
v 0.415735 -0.500000 -0.277785
v 0.415735 0.500000 -0.277785
v 0.428865 -0.500000 -0.257051
v 0.428865 0.500000 -0.257052
v 0.440960 -0.500000 -0.235698
v 0.440960 0.500000 -0.235699
v 0.451995 -0.500000 -0.213777
v 0.451995 0.500000 -0.213778
v 0.461940 -0.500000 -0.191341
v 0.461940 0.500000 -0.191342
v 0.470772 -0.500000 -0.168445
v 0.470772 0.500000 -0.168445
v 0.478470 -0.500000 -0.145142
v 0.478470 0.500000 -0.145143
v 0.485016 -0.500000 -0.121490
v 0.485016 0.500000 -0.121490
v 0.490393 -0.500000 -0.097545
v 0.490393 0.500000 -0.097545
v 0.494588 -0.500000 -0.073365
v 0.494588 0.500000 -0.073365
v 0.497593 -0.500000 -0.049008
v 0.497593 0.500000 -0.049009
v 0.499397 -0.500000 -0.024534
v 0.499397 0.500000 -0.024534
v 0.500000 -0.500000 0.000000
v 0.500000 0.500000 -0.000000
v 0.499397 -0.500000 0.024534
v 0.499397 0.500000 0.024534
v 0.497593 -0.500000 0.049009
v 0.497593 0.500000 0.049008
v 0.494588 -0.500000 0.073365
v 0.494588 0.500000 0.073365
v 0.490393 -0.500000 0.097545
v 0.490393 0.500000 0.097545
v 0.485016 -0.500000 0.121490
v 0.485016 0.500000 0.121490
v 0.478470 -0.500000 0.145143
v 0.478470 0.500000 0.145142
v 0.470772 -0.500000 0.168445
v 0.470772 0.500000 0.168445
v 0.461940 -0.500000 0.191342
v 0.461940 0.500000 0.191341
v 0.451995 -0.500000 0.213778
v 0.451995 0.500000 0.213777
v 0.440960 -0.500000 0.235699
v 0.440960 0.500000 0.235698
v 0.428865 -0.500000 0.257052
v 0.428865 0.500000 0.257051
v 0.415735 -0.500000 0.277785
v 0.415735 0.500000 0.277785
v 0.401604 -0.500000 0.297850
v 0.401604 0.500000 0.297849
v 0.386505 -0.500000 0.317197
v 0.386505 0.500000 0.317196
v 0.370476 -0.500000 0.335780
v 0.370476 0.500000 0.335779
v 0.353554 -0.500000 0.353554
v 0.353554 0.500000 0.353553
v 0.335779 -0.500000 0.370476
v 0.335779 0.500000 0.370475
v 0.317196 -0.500000 0.386505
v 0.317196 0.500000 0.386505
v 0.297850 -0.500000 0.401604
v 0.297850 0.500000 0.401604
v 0.277785 -0.500000 0.415735
v 0.277785 0.500000 0.415735
v 0.257051 -0.500000 0.428865
v 0.257051 0.500000 0.428864
v 0.235699 -0.500000 0.440961
v 0.235699 0.500000 0.440960
v 0.213777 -0.500000 0.451995
v 0.213777 0.500000 0.451994
v 0.191342 -0.500000 0.461940
v 0.191342 0.500000 0.461940
v 0.168445 -0.500000 0.470772
v 0.168445 0.500000 0.470772
v 0.145142 -0.500000 0.478470
v 0.145142 0.500000 0.478470
v 0.121490 -0.500000 0.485016
v 0.121490 0.500000 0.485015
v 0.097545 -0.500000 0.490393
v 0.097545 0.500000 0.490392
v 0.073365 -0.500000 0.494589
v 0.073365 0.500000 0.494588
v 0.049008 -0.500000 0.497593
v 0.049008 0.500000 0.497592
v 0.024534 -0.500000 0.499398
v 0.024534 0.500000 0.499397
v 0.000000 -0.500000 0.500000
v 0.000000 0.500000 0.500000
v -0.024534 -0.500000 0.499398
v -0.024534 0.500000 0.499397
v -0.049008 -0.500000 0.497593
v -0.049008 0.500000 0.497592
v -0.073365 -0.500000 0.494589
v -0.073365 0.500000 0.494588
v -0.097545 -0.500000 0.490393
v -0.097545 0.500000 0.490392
v -0.121490 -0.500000 0.485016
v -0.121490 0.500000 0.485015
v -0.145142 -0.500000 0.478470
v -0.145142 0.500000 0.478470
v -0.168445 -0.500000 0.470772
v -0.168445 0.500000 0.470772
v -0.191342 -0.500000 0.461940
v -0.191342 0.500000 0.461940
v -0.213777 -0.500000 0.451995
v -0.213777 0.500000 0.451994
v -0.235699 -0.500000 0.440961
v -0.235699 0.500000 0.440960
v -0.257051 -0.500000 0.428865
v -0.257051 0.500000 0.428864
v -0.277785 -0.500000 0.415735
v -0.277785 0.500000 0.415735
v -0.297850 -0.500000 0.401604
v -0.297850 0.500000 0.401604
v -0.317196 -0.500000 0.386505
v -0.317196 0.500000 0.386505
v -0.335779 -0.500000 0.370476
v -0.335779 0.500000 0.370475
v -0.353554 -0.500000 0.353554
v -0.353554 0.500000 0.353553
v -0.370476 -0.500000 0.335780
v -0.370476 0.500000 0.335779
v -0.386505 -0.500000 0.317197
v -0.386505 0.500000 0.317196
v -0.401604 -0.500000 0.297850
v -0.401604 0.500000 0.297849
v -0.415735 -0.500000 0.277785
v -0.415735 0.500000 0.277785
v -0.428865 -0.500000 0.257052
v -0.428865 0.500000 0.257051
v -0.440960 -0.500000 0.235699
v -0.440960 0.500000 0.235698
v -0.451995 -0.500000 0.213778
v -0.451995 0.500000 0.213777
v -0.461940 -0.500000 0.191342
v -0.461940 0.500000 0.191341
v -0.470772 -0.500000 0.168445
v -0.470772 0.500000 0.168445
v -0.478470 -0.500000 0.145143
v -0.478470 0.500000 0.145142
v -0.485016 -0.500000 0.121490
v -0.485016 0.500000 0.121490
v -0.490393 -0.500000 0.097545
v -0.490393 0.500000 0.097545
v -0.494588 -0.500000 0.073365
v -0.494588 0.500000 0.073365
v -0.497593 -0.500000 0.049009
v -0.497593 0.500000 0.049008
v -0.499397 -0.500000 0.024534
v -0.499397 0.500000 0.024534
v -0.500000 -0.500000 0.000000
v -0.500000 0.500000 -0.000000
v -0.499397 -0.500000 -0.024534
v -0.499397 0.500000 -0.024534
v -0.497593 -0.500000 -0.049008
v -0.497593 0.500000 -0.049009
v -0.494588 -0.500000 -0.073365
v -0.494588 0.500000 -0.073365
v -0.490393 -0.500000 -0.097545
v -0.490393 0.500000 -0.097545
v -0.485016 -0.500000 -0.121490
v -0.485016 0.500000 -0.121490
v -0.478470 -0.500000 -0.145142
v -0.478470 0.500000 -0.145143
v -0.470772 -0.500000 -0.168445
v -0.470772 0.500000 -0.168445
v -0.461940 -0.500000 -0.191341
v -0.461940 0.500000 -0.191342
v -0.451995 -0.500000 -0.213777
v -0.451995 0.500000 -0.213778
v -0.440960 -0.500000 -0.235698
v -0.440960 0.500000 -0.235699
v -0.428865 -0.500000 -0.257051
v -0.428865 0.500000 -0.257052
v -0.415735 -0.500000 -0.277785
v -0.415735 0.500000 -0.277785
v -0.401604 -0.500000 -0.297849
v -0.401604 0.500000 -0.297850
v -0.386505 -0.500000 -0.317196
v -0.386505 0.500000 -0.317197
v -0.370476 -0.500000 -0.335779
v -0.370476 0.500000 -0.335780
v -0.353554 -0.500000 -0.353553
v -0.353554 0.500000 -0.353554
v -0.335779 -0.500000 -0.370475
v -0.335779 0.500000 -0.370476
v -0.317196 -0.500000 -0.386505
v -0.317196 0.500000 -0.386505
v -0.297850 -0.500000 -0.401604
v -0.297850 0.500000 -0.401604
v -0.277785 -0.500000 -0.415735
v -0.277785 0.500000 -0.415735
v -0.257051 -0.500000 -0.428864
v -0.257051 0.500000 -0.428865
v -0.235699 -0.500000 -0.440960
v -0.235699 0.500000 -0.440961
v -0.213777 -0.500000 -0.451994
v -0.213777 0.500000 -0.451995
v -0.191342 -0.500000 -0.461940
v -0.191342 0.500000 -0.461940
v -0.168445 -0.500000 -0.470772
v -0.168445 0.500000 -0.470772
v -0.145142 -0.500000 -0.478470
v -0.145142 0.500000 -0.478470
v -0.121490 -0.500000 -0.485015
v -0.121490 0.500000 -0.485016
v -0.097545 -0.500000 -0.490392
v -0.097545 0.500000 -0.490393
v -0.073365 -0.500000 -0.494588
v -0.073365 0.500000 -0.494589
v -0.049008 -0.500000 -0.497592
v -0.049008 0.500000 -0.497593
v -0.024534 -0.500000 -0.499397
v -0.024534 0.500000 -0.499398
vn 0.0246 -0.0000 -0.9997
vn 0.0245 -0.0000 -0.9997
vn 0.0735 -0.0000 -0.9973
vn 0.0736 -0.0000 -0.9973
vn 0.1224 -0.0000 -0.9925
vn 0.1710 -0.0000 -0.9853
vn 0.2191 -0.0000 -0.9757
vn 0.2667 -0.0000 -0.9638
vn 0.3137 -0.0000 -0.9495
vn 0.3599 -0.0000 -0.9330
vn 0.4053 -0.0000 -0.9142
vn 0.4496 -0.0000 -0.8932
vn 0.4929 -0.0000 -0.8701
vn 0.5350 -0.0000 -0.8449
vn 0.5758 -0.0000 -0.8176
vn 0.6152 -0.0000 -0.7883
vn 0.6532 -0.0000 -0.7572
vn 0.6895 -0.0000 -0.7243
vn 0.7243 -0.0000 -0.6895
vn 0.7572 -0.0000 -0.6532
vn 0.7883 -0.0000 -0.6152
vn 0.8176 -0.0000 -0.5758
vn 0.8449 -0.0000 -0.5350
vn 0.8701 -0.0000 -0.4929
vn 0.8932 -0.0000 -0.4496
vn 0.9142 -0.0000 -0.4053
vn 0.9330 -0.0000 -0.3599
vn 0.9495 -0.0000 -0.3137
vn 0.9638 -0.0000 -0.2667
vn 0.9757 -0.0000 -0.2191
vn 0.9853 -0.0000 -0.1710
vn 0.9925 -0.0000 -0.1224
vn 0.9973 -0.0000 -0.0735
vn 0.9997 -0.0000 -0.0246
vn 0.9997 -0.0000 0.0246
vn 0.9973 -0.0000 0.0735
vn 0.9925 -0.0000 0.1224
vn 0.9853 -0.0000 0.1710
vn 0.9757 -0.0000 0.2191
vn 0.9638 -0.0000 0.2667
vn 0.9495 -0.0000 0.3137
vn 0.9330 -0.0000 0.3599
vn 0.9142 -0.0000 0.4053
vn 0.8932 -0.0000 0.4496
vn 0.8701 -0.0000 0.4929
vn 0.8449 -0.0000 0.5350
vn 0.8176 -0.0000 0.5758
vn 0.7883 -0.0000 0.6152
vn 0.7572 -0.0000 0.6532
vn 0.7243 -0.0000 0.6895
vn 0.6895 -0.0000 0.7243
vn 0.6532 -0.0000 0.7572
vn 0.6152 -0.0000 0.7883
vn 0.5758 -0.0000 0.8176
vn 0.5350 -0.0000 0.8449
vn 0.4929 -0.0000 0.8701
vn 0.4496 -0.0000 0.8932
vn 0.4053 -0.0000 0.9142
vn 0.3599 -0.0000 0.9330
vn 0.3137 -0.0000 0.9495
vn 0.2667 -0.0000 0.9638
vn 0.2191 -0.0000 0.9757
vn 0.1710 -0.0000 0.9853
vn 0.1224 -0.0000 0.9925
vn 0.0736 -0.0000 0.9973
vn 0.0735 -0.0000 0.9973
vn 0.0245 -0.0000 0.9997
vn 0.0246 -0.0000 0.9997
vn -0.0246 -0.0000 0.9997
vn -0.0245 -0.0000 0.9997
vn -0.0735 -0.0000 0.9973
vn -0.0736 -0.0000 0.9973
vn -0.1224 -0.0000 0.9925
vn -0.1710 -0.0000 0.9853
vn -0.2191 -0.0000 0.9757
vn -0.2667 -0.0000 0.9638
vn -0.3137 -0.0000 0.9495
vn -0.3599 -0.0000 0.9330
vn -0.4053 -0.0000 0.9142
vn -0.4496 -0.0000 0.8932
vn -0.4929 -0.0000 0.8701
vn -0.5350 -0.0000 0.8449
vn -0.5758 -0.0000 0.8176
vn -0.6152 -0.0000 0.7883
vn -0.6532 -0.0000 0.7572
vn -0.6895 -0.0000 0.7243
vn -0.7243 -0.0000 0.6895
vn -0.7572 -0.0000 0.6532
vn -0.7883 -0.0000 0.6152
vn -0.8176 -0.0000 0.5758
vn -0.8449 -0.0000 0.5350
vn -0.8701 -0.0000 0.4929
vn -0.8932 -0.0000 0.4496
vn -0.9142 -0.0000 0.4053
vn -0.9330 -0.0000 0.3599
vn -0.9495 -0.0000 0.3137
vn -0.9638 -0.0000 0.2667
vn -0.9757 -0.0000 0.2191
vn -0.9853 -0.0000 0.1710
vn -0.9925 -0.0000 0.1224
vn -0.9973 -0.0000 0.0735
vn -0.9997 -0.0000 0.0246
vn -0.9997 -0.0000 -0.0246
vn -0.9973 -0.0000 -0.0735
vn -0.9925 -0.0000 -0.1224
vn -0.9853 -0.0000 -0.1710
vn -0.9757 -0.0000 -0.2191
vn -0.9638 -0.0000 -0.2667
vn -0.9495 -0.0000 -0.3137
vn -0.9330 -0.0000 -0.3599
vn -0.9142 -0.0000 -0.4053
vn -0.8932 -0.0000 -0.4496
vn -0.8701 -0.0000 -0.4929
vn -0.8449 -0.0000 -0.5350
vn -0.8176 -0.0000 -0.5758
vn -0.7883 -0.0000 -0.6152
vn -0.7572 -0.0000 -0.6532
vn -0.7243 -0.0000 -0.6895
vn -0.6895 -0.0000 -0.7243
vn -0.6532 -0.0000 -0.7572
vn -0.6152 -0.0000 -0.7883
vn -0.5758 -0.0000 -0.8176
vn -0.5350 -0.0000 -0.8449
vn -0.4929 -0.0000 -0.8701
vn -0.4496 -0.0000 -0.8932
vn -0.4053 -0.0000 -0.9142
vn -0.3599 -0.0000 -0.9330
vn -0.3137 -0.0000 -0.9495
vn -0.2667 -0.0000 -0.9638
vn -0.2191 -0.0000 -0.9757
vn -0.1710 -0.0000 -0.9853
vn -0.1224 -0.0000 -0.9925
vn -0.0000 1.0000 -0.0000
vn -0.0736 -0.0000 -0.9973
vn -0.0735 -0.0000 -0.9973
vn -0.0245 -0.0000 -0.9997
vn -0.0246 -0.0000 -0.9997
vn -0.0000 -1.0000 -0.0000
vn -0.0000 -1.0000 0.0001
vn -0.0000 -1.0000 -0.0001
vt 1.000000 1.000000
vt 0.992188 0.500000
vt 1.000000 0.500000
vt 0.992188 1.000000
vt 0.984375 0.500000
vt 0.984375 1.000000
vt 0.976562 0.500000
vt 0.976562 1.000000
vt 0.968750 0.500000
vt 0.968750 1.000000
vt 0.960938 0.500000
vt 0.960938 1.000000
vt 0.953125 0.500000
vt 0.953125 1.000000
vt 0.945312 0.500000
vt 0.945312 1.000000
vt 0.937500 0.500000
vt 0.937500 1.000000
vt 0.929688 0.500000
vt 0.929688 1.000000
vt 0.921875 0.500000
vt 0.921875 1.000000
vt 0.914062 0.500000
vt 0.914062 1.000000
vt 0.906250 0.500000
vt 0.906250 1.000000
vt 0.898438 0.500000
vt 0.898438 1.000000
vt 0.890625 0.500000
vt 0.890625 1.000000
vt 0.882812 0.500000
vt 0.882812 1.000000
vt 0.875000 0.500000
vt 0.875000 1.000000
vt 0.867188 0.500000
vt 0.867188 1.000000
vt 0.859375 0.500000
vt 0.859375 1.000000
vt 0.851562 0.500000
vt 0.851562 1.000000
vt 0.843750 0.500000
vt 0.843750 1.000000
vt 0.835938 0.500000
vt 0.835938 1.000000
vt 0.828125 0.500000
vt 0.828125 1.000000
vt 0.820312 0.500000
vt 0.820312 1.000000
vt 0.812500 0.500000
vt 0.812500 1.000000
vt 0.804688 0.500000
vt 0.804688 1.000000
vt 0.796875 0.500000
vt 0.796875 1.000000
vt 0.789062 0.500000
vt 0.789062 1.000000
vt 0.781250 0.500000
vt 0.781250 1.000000
vt 0.773438 0.500000
vt 0.773438 1.000000
vt 0.765625 0.500000
vt 0.765625 1.000000
vt 0.757812 0.500000
vt 0.757812 1.000000
vt 0.750000 0.500000
vt 0.750000 1.000000
vt 0.742188 0.500000
vt 0.742188 1.000000
vt 0.734375 0.500000
vt 0.734375 1.000000
vt 0.726562 0.500000
vt 0.726562 1.000000
vt 0.718750 0.500000
vt 0.718750 1.000000
vt 0.710938 0.500000
vt 0.710938 1.000000
vt 0.703125 0.500000
vt 0.703125 1.000000
vt 0.695312 0.500000
vt 0.695312 1.000000
vt 0.687500 0.500000
vt 0.687500 1.000000
vt 0.679688 0.500000
vt 0.679688 1.000000
vt 0.671875 0.500000
vt 0.671875 1.000000
vt 0.664062 0.500000
vt 0.664062 1.000000
vt 0.656250 0.500000
vt 0.656250 1.000000
vt 0.648438 0.500000
vt 0.648438 1.000000
vt 0.640625 0.500000
vt 0.640625 1.000000
vt 0.632812 0.500000
vt 0.632812 1.000000
vt 0.625000 0.500000
vt 0.625000 1.000000
vt 0.617188 0.500000
vt 0.617188 1.000000
vt 0.609375 0.500000
vt 0.609375 1.000000
vt 0.601562 0.500000
vt 0.601562 1.000000
vt 0.593750 0.500000
vt 0.593750 1.000000
vt 0.585938 0.500000
vt 0.585938 1.000000
vt 0.578125 0.500000
vt 0.578125 1.000000
vt 0.570312 0.500000
vt 0.570312 1.000000
vt 0.562500 0.500000
vt 0.562500 1.000000
vt 0.554688 0.500000
vt 0.554688 1.000000
vt 0.546875 0.500000
vt 0.546875 1.000000
vt 0.539062 0.500000
vt 0.539062 1.000000
vt 0.531250 0.500000
vt 0.531250 1.000000
vt 0.523438 0.500000
vt 0.523438 1.000000
vt 0.515625 0.500000
vt 0.515625 1.000000
vt 0.507812 0.500000
vt 0.507812 1.000000
vt 0.500000 0.500000
vt 0.500000 1.000000
vt 0.492188 0.500000
vt 0.492188 1.000000
vt 0.484375 0.500000
vt 0.484375 1.000000
vt 0.476562 0.500000
vt 0.476562 1.000000
vt 0.468750 0.500000
vt 0.468750 1.000000
vt 0.460938 0.500000
vt 0.460938 1.000000
vt 0.453125 0.500000
vt 0.453125 1.000000
vt 0.445312 0.500000
vt 0.445312 1.000000
vt 0.437500 0.500000
vt 0.437500 1.000000
vt 0.429688 0.500000
vt 0.429688 1.000000
vt 0.421875 0.500000
vt 0.421875 1.000000
vt 0.414062 0.500000
vt 0.414062 1.000000
vt 0.406250 0.500000
vt 0.406250 1.000000
vt 0.398438 0.500000
vt 0.398438 1.000000
vt 0.390625 0.500000
vt 0.390625 1.000000
vt 0.382812 0.500000
vt 0.382812 1.000000
vt 0.375000 0.500000
vt 0.375000 1.000000
vt 0.367188 0.500000
vt 0.367188 1.000000
vt 0.359375 0.500000
vt 0.359375 1.000000
vt 0.351562 0.500000
vt 0.351562 1.000000
vt 0.343750 0.500000
vt 0.343750 1.000000
vt 0.335938 0.500000
vt 0.335938 1.000000
vt 0.328125 0.500000
vt 0.328125 1.000000
vt 0.320312 0.500000
vt 0.320312 1.000000
vt 0.312500 0.500000
vt 0.312500 1.000000
vt 0.304688 0.500000
vt 0.304688 1.000000
vt 0.296875 0.500000
vt 0.296875 1.000000
vt 0.289062 0.500000
vt 0.289062 1.000000
vt 0.281250 0.500000
vt 0.281250 1.000000
vt 0.273438 0.500000
vt 0.273438 1.000000
vt 0.265625 0.500000
vt 0.265625 1.000000
vt 0.257812 0.500000
vt 0.257812 1.000000
vt 0.250000 0.500000
vt 0.250000 1.000000
vt 0.242188 0.500000
vt 0.242188 1.000000
vt 0.234375 0.500000
vt 0.234375 1.000000
vt 0.226562 0.500000
vt 0.226562 1.000000
vt 0.218750 0.500000
vt 0.218750 1.000000
vt 0.210938 0.500000
vt 0.210938 1.000000
vt 0.203125 0.500000
vt 0.203125 1.000000
vt 0.195312 0.500000
vt 0.195312 1.000000
vt 0.187500 0.500000
vt 0.187500 1.000000
vt 0.179688 0.500000
vt 0.179688 1.000000
vt 0.171875 0.500000
vt 0.171875 1.000000
vt 0.164062 0.500000
vt 0.164062 1.000000
vt 0.156250 0.500000
vt 0.156250 1.000000
vt 0.148438 0.500000
vt 0.148438 1.000000
vt 0.140625 0.500000
vt 0.140625 1.000000
vt 0.132812 0.500000
vt 0.132812 1.000000
vt 0.125000 0.500000
vt 0.125000 1.000000
vt 0.117188 0.500000
vt 0.117188 1.000000
vt 0.109375 0.500000
vt 0.109375 1.000000
vt 0.101562 0.500000
vt 0.101562 1.000000
vt 0.093750 0.500000
vt 0.093750 1.000000
vt 0.085938 0.500000
vt 0.085938 1.000000
vt 0.078125 0.500000
vt 0.078125 1.000000
vt 0.070312 0.500000
vt 0.070312 1.000000
vt 0.062500 0.500000
vt 0.062500 1.000000
vt 0.054688 0.500000
vt 0.054688 1.000000
vt 0.046875 0.500000
vt 0.046875 1.000000
vt 0.039062 0.500000
vt 0.039062 1.000000
vt 0.031250 0.500000
vt 0.031250 1.000000
vt 0.023438 0.500000
vt 0.023438 1.000000
vt 0.015625 0.500000
vt 0.226476 0.011156
vt 0.488844 0.226476
vt 0.273524 0.488844
vt 0.015625 1.000000
vt 0.007812 0.500000
vt 0.007812 1.000000
vt 0.000000 0.500000
vt 0.761776 0.010289
vt 0.510289 0.238224
vt 0.738224 0.489711
vt 0.261776 0.489711
vt 0.250000 0.490000
vt 0.238224 0.489711
vt 0.226476 0.488844
vt 0.214785 0.487402
vt 0.203178 0.485388
vt 0.191685 0.482808
vt 0.180332 0.479666
vt 0.169146 0.475971
vt 0.158156 0.471731
vt 0.147387 0.466957
vt 0.136865 0.461661
vt 0.126615 0.455855
vt 0.116663 0.449553
vt 0.107032 0.442770
vt 0.097746 0.435522
vt 0.088826 0.427828
vt 0.080294 0.419706
vt 0.072172 0.411174
vt 0.064478 0.402254
vt 0.057230 0.392968
vt 0.050447 0.383337
vt 0.044145 0.373385
vt 0.038339 0.363135
vt 0.033043 0.352613
vt 0.028269 0.341844
vt 0.024029 0.330854
vt 0.020334 0.319668
vt 0.017192 0.308315
vt 0.014612 0.296822
vt 0.012598 0.285215
vt 0.011156 0.273524
vt 0.010289 0.261776
vt 0.010000 0.250000
vt 0.010289 0.238224
vt 0.011156 0.226476
vt 0.012598 0.214785
vt 0.014612 0.203178
vt 0.017192 0.191685
vt 0.020334 0.180332
vt 0.024029 0.169146
vt 0.028269 0.158156
vt 0.033043 0.147387
vt 0.038339 0.136865
vt 0.044145 0.126615
vt 0.050447 0.116663
vt 0.057230 0.107032
vt 0.064478 0.097746
vt 0.072172 0.088826
vt 0.080294 0.080294
vt 0.088826 0.072172
vt 0.097746 0.064478
vt 0.107032 0.057230
vt 0.116663 0.050447
vt 0.126615 0.044145
vt 0.136865 0.038339
vt 0.147387 0.033043
vt 0.158156 0.028269
vt 0.169146 0.024029
vt 0.180332 0.020334
vt 0.191685 0.017192
vt 0.203178 0.014612
vt 0.214785 0.012598
vt 0.238224 0.010289
vt 0.250000 0.010000
vt 0.261776 0.010289
vt 0.273524 0.011156
vt 0.285215 0.012598
vt 0.296822 0.014612
vt 0.308315 0.017192
vt 0.319668 0.020334
vt 0.330854 0.024029
vt 0.341844 0.028269
vt 0.352613 0.033043
vt 0.363135 0.038339
vt 0.373385 0.044145
vt 0.383337 0.050447
vt 0.392968 0.057230
vt 0.402254 0.064478
vt 0.411174 0.072172
vt 0.419706 0.080294
vt 0.427828 0.088826
vt 0.435522 0.097746
vt 0.442770 0.107032
vt 0.449553 0.116663
vt 0.455855 0.126615
vt 0.461661 0.136865
vt 0.466957 0.147387
vt 0.471731 0.158156
vt 0.475971 0.169146
vt 0.479666 0.180332
vt 0.482808 0.191685
vt 0.485388 0.203178
vt 0.487402 0.214785
vt 0.489711 0.238224
vt 0.490000 0.250000
vt 0.489711 0.261776
vt 0.488844 0.273524
vt 0.487402 0.285215
vt 0.485388 0.296822
vt 0.482808 0.308315
vt 0.479666 0.319668
vt 0.475971 0.330854
vt 0.471731 0.341844
vt 0.466957 0.352613
vt 0.461661 0.363135
vt 0.455855 0.373385
vt 0.449553 0.383337
vt 0.442770 0.392968
vt 0.435522 0.402254
vt 0.427828 0.411174
vt 0.419706 0.419706
vt 0.411174 0.427828
vt 0.402254 0.435522
vt 0.392968 0.442770
vt 0.383337 0.449553
vt 0.373385 0.455855
vt 0.363135 0.461661
vt 0.352613 0.466957
vt 0.341844 0.471731
vt 0.330854 0.475971
vt 0.319668 0.479666
vt 0.308315 0.482808
vt 0.296822 0.485388
vt 0.285215 0.487402
vt 0.000000 1.000000
vt 0.750000 0.490000
vt 0.761776 0.489711
vt 0.773524 0.488844
vt 0.785215 0.487402
vt 0.796822 0.485388
vt 0.808315 0.482808
vt 0.819668 0.479666
vt 0.830854 0.475971
vt 0.841844 0.471731
vt 0.852613 0.466957
vt 0.863135 0.461661
vt 0.873385 0.455855
vt 0.883337 0.449553
vt 0.892968 0.442770
vt 0.902254 0.435522
vt 0.911174 0.427828
vt 0.919706 0.419706
vt 0.927828 0.411174
vt 0.935522 0.402254
vt 0.942770 0.392968
vt 0.949553 0.383337
vt 0.955855 0.373385
vt 0.961661 0.363135
vt 0.966957 0.352613
vt 0.971731 0.341844
vt 0.975971 0.330854
vt 0.979666 0.319668
vt 0.982808 0.308315
vt 0.985388 0.296822
vt 0.987402 0.285215
vt 0.988844 0.273524
vt 0.989711 0.261776
vt 0.990000 0.250000
vt 0.989711 0.238224
vt 0.988844 0.226476
vt 0.987402 0.214785
vt 0.985388 0.203178
vt 0.982808 0.191685
vt 0.979666 0.180332
vt 0.975971 0.169146
vt 0.971731 0.158156
vt 0.966957 0.147387
vt 0.961661 0.136865
vt 0.955855 0.126615
vt 0.949553 0.116663
vt 0.942770 0.107032
vt 0.935522 0.097746
vt 0.927828 0.088826
vt 0.919706 0.080294
vt 0.911174 0.072172
vt 0.902254 0.064478
vt 0.892968 0.057230
vt 0.883337 0.050447
vt 0.873385 0.044145
vt 0.863135 0.038339
vt 0.852613 0.033043
vt 0.841844 0.028269
vt 0.830854 0.024029
vt 0.819668 0.020334
vt 0.808315 0.017192
vt 0.796822 0.014612
vt 0.785215 0.012598
vt 0.773524 0.011156
vt 0.750000 0.010000
vt 0.738224 0.010289
vt 0.726476 0.011156
vt 0.714785 0.012598
vt 0.703178 0.014612
vt 0.691685 0.017192
vt 0.680332 0.020334
vt 0.669146 0.024029
vt 0.658156 0.028269
vt 0.647387 0.033043
vt 0.636865 0.038339
vt 0.626615 0.044145
vt 0.616663 0.050447
vt 0.607032 0.057230
vt 0.597746 0.064478
vt 0.588826 0.072172
vt 0.580294 0.080294
vt 0.572172 0.088826
vt 0.564478 0.097746
vt 0.557230 0.107032
vt 0.550447 0.116663
vt 0.544145 0.126615
vt 0.538339 0.136865
vt 0.533043 0.147387
vt 0.528269 0.158156
vt 0.524029 0.169146
vt 0.520334 0.180332
vt 0.517192 0.191685
vt 0.514612 0.203178
vt 0.512598 0.214785
vt 0.511156 0.226476
vt 0.510000 0.250000
vt 0.510289 0.261776
vt 0.511156 0.273524
vt 0.512598 0.285215
vt 0.514612 0.296822
vt 0.517192 0.308315
vt 0.520334 0.319668
vt 0.524029 0.330854
vt 0.528269 0.341844
vt 0.533043 0.352613
vt 0.538339 0.363135
vt 0.544145 0.373385
vt 0.550447 0.383337
vt 0.557230 0.392968
vt 0.564478 0.402254
vt 0.572172 0.411174
vt 0.580294 0.419706
vt 0.588826 0.427828
vt 0.597746 0.435522
vt 0.607032 0.442770
vt 0.616663 0.449553
vt 0.626615 0.455855
vt 0.636865 0.461661
vt 0.647387 0.466957
vt 0.658156 0.471731
vt 0.669146 0.475971
vt 0.680332 0.479666
vt 0.691685 0.482808
vt 0.703178 0.485388
vt 0.714785 0.487402
vt 0.726476 0.488844
s 1
f 2/1/1 3/2/2 1/3/2
f 4/4/3 5/5/4 3/2/4
f 6/6/5 7/7/5 5/5/5
f 8/8/6 9/9/6 7/7/6
f 10/10/7 11/11/7 9/9/7
f 12/12/8 13/13/8 11/11/8
f 14/14/9 15/15/9 13/13/9
f 16/16/10 17/17/10 15/15/10
f 18/18/11 19/19/11 17/17/11
f 20/20/12 21/21/12 19/19/12
f 22/22/13 23/23/13 21/21/13
f 24/24/14 25/25/14 23/23/14
f 26/26/15 27/27/15 25/25/15
f 28/28/16 29/29/16 27/27/16
f 30/30/17 31/31/17 29/29/17
f 32/32/18 33/33/18 31/31/18
f 34/34/19 35/35/19 33/33/19
f 36/36/20 37/37/20 35/35/20
f 38/38/21 39/39/21 37/37/21
f 40/40/22 41/41/22 39/39/22
f 42/42/23 43/43/23 41/41/23
f 44/44/24 45/45/24 43/43/24
f 46/46/25 47/47/25 45/45/25
f 48/48/26 49/49/26 47/47/26
f 50/50/27 51/51/27 49/49/27
f 52/52/28 53/53/28 51/51/28
f 54/54/29 55/55/29 53/53/29
f 56/56/30 57/57/30 55/55/30
f 58/58/31 59/59/31 57/57/31
f 60/60/32 61/61/32 59/59/32
f 62/62/33 63/63/33 61/61/33
f 64/64/34 65/65/34 63/63/34
f 66/66/35 67/67/35 65/65/35
f 68/68/36 69/69/36 67/67/36
f 70/70/37 71/71/37 69/69/37
f 72/72/38 73/73/38 71/71/38
f 74/74/39 75/75/39 73/73/39
f 76/76/40 77/77/40 75/75/40
f 78/78/41 79/79/41 77/77/41
f 80/80/42 81/81/42 79/79/42
f 82/82/43 83/83/43 81/81/43
f 84/84/44 85/85/44 83/83/44
f 86/86/45 87/87/45 85/85/45
f 88/88/46 89/89/46 87/87/46
f 90/90/47 91/91/47 89/89/47
f 92/92/48 93/93/48 91/91/48
f 94/94/49 95/95/49 93/93/49
f 96/96/50 97/97/50 95/95/50
f 98/98/51 99/99/51 97/97/51
f 100/100/52 101/101/52 99/99/52
f 102/102/53 103/103/53 101/101/53
f 104/104/54 105/105/54 103/103/54
f 106/106/55 107/107/55 105/105/55
f 108/108/56 109/109/56 107/107/56
f 110/110/57 111/111/57 109/109/57
f 112/112/58 113/113/58 111/111/58
f 114/114/59 115/115/59 113/113/59
f 116/116/60 117/117/60 115/115/60
f 118/118/61 119/119/61 117/117/61
f 120/120/62 121/121/62 119/119/62
f 122/122/63 123/123/63 121/121/63
f 124/124/64 125/125/64 123/123/64
f 126/126/65 127/127/66 125/125/66
f 128/128/67 129/129/68 127/127/68
f 130/130/69 131/131/70 129/129/70
f 132/132/71 133/133/72 131/131/72
f 134/134/73 135/135/73 133/133/73
f 136/136/74 137/137/74 135/135/74
f 138/138/75 139/139/75 137/137/75
f 140/140/76 141/141/76 139/139/76
f 142/142/77 143/143/77 141/141/77
f 144/144/78 145/145/78 143/143/78
f 146/146/79 147/147/79 145/145/79
f 148/148/80 149/149/80 147/147/80
f 150/150/81 151/151/81 149/149/81
f 152/152/82 153/153/82 151/151/82
f 154/154/83 155/155/83 153/153/83
f 156/156/84 157/157/84 155/155/84
f 158/158/85 159/159/85 157/157/85
f 160/160/86 161/161/86 159/159/86
f 162/162/87 163/163/87 161/161/87
f 164/164/88 165/165/88 163/163/88
f 166/166/89 167/167/89 165/165/89
f 168/168/90 169/169/90 167/167/90
f 170/170/91 171/171/91 169/169/91
f 172/172/92 173/173/92 171/171/92
f 174/174/93 175/175/93 173/173/93
f 176/176/94 177/177/94 175/175/94
f 178/178/95 179/179/95 177/177/95
f 180/180/96 181/181/96 179/179/96
f 182/182/97 183/183/97 181/181/97
f 184/184/98 185/185/98 183/183/98
f 186/186/99 187/187/99 185/185/99
f 188/188/100 189/189/100 187/187/100
f 190/190/101 191/191/101 189/189/101
f 192/192/102 193/193/102 191/191/102
f 194/194/103 195/195/103 193/193/103
f 196/196/104 197/197/104 195/195/104
f 198/198/105 199/199/105 197/197/105
f 200/200/106 201/201/106 199/199/106
f 202/202/107 203/203/107 201/201/107
f 204/204/108 205/205/108 203/203/108
f 206/206/109 207/207/109 205/205/109
f 208/208/110 209/209/110 207/207/110
f 210/210/111 211/211/111 209/209/111
f 212/212/112 213/213/112 211/211/112
f 214/214/113 215/215/113 213/213/113
f 216/216/114 217/217/114 215/215/114
f 218/218/115 219/219/115 217/217/115
f 220/220/116 221/221/116 219/219/116
f 222/222/117 223/223/117 221/221/117
f 224/224/118 225/225/118 223/223/118
f 226/226/119 227/227/119 225/225/119
f 228/228/120 229/229/120 227/227/120
f 230/230/121 231/231/121 229/229/121
f 232/232/122 233/233/122 231/231/122
f 234/234/123 235/235/123 233/233/123
f 236/236/124 237/237/124 235/235/124
f 238/238/125 239/239/125 237/237/125
f 240/240/126 241/241/126 239/239/126
f 242/242/127 243/243/127 241/241/127
f 244/244/128 245/245/128 243/243/128
f 246/246/129 247/247/129 245/245/129
f 248/248/130 249/249/130 247/247/130
f 250/250/131 251/251/131 249/249/131
f 252/252/132 253/253/132 251/251/132
f 134/254/133 70/255/133 6/256/133
f 254/257/134 255/258/135 253/253/135
f 256/259/136 1/260/137 255/258/137
f 127/261/138 191/262/138 255/263/138
f 2/1/1 4/4/1 3/2/2
f 4/4/3 6/6/3 5/5/4
f 6/6/5 8/8/5 7/7/5
f 8/8/6 10/10/6 9/9/6
f 10/10/7 12/12/7 11/11/7
f 12/12/8 14/14/8 13/13/8
f 14/14/9 16/16/9 15/15/9
f 16/16/10 18/18/10 17/17/10
f 18/18/11 20/20/11 19/19/11
f 20/20/12 22/22/12 21/21/12
f 22/22/13 24/24/13 23/23/13
f 24/24/14 26/26/14 25/25/14
f 26/26/15 28/28/15 27/27/15
f 28/28/16 30/30/16 29/29/16
f 30/30/17 32/32/17 31/31/17
f 32/32/18 34/34/18 33/33/18
f 34/34/19 36/36/19 35/35/19
f 36/36/20 38/38/20 37/37/20
f 38/38/21 40/40/21 39/39/21
f 40/40/22 42/42/22 41/41/22
f 42/42/23 44/44/23 43/43/23
f 44/44/24 46/46/24 45/45/24
f 46/46/25 48/48/25 47/47/25
f 48/48/26 50/50/26 49/49/26
f 50/50/27 52/52/27 51/51/27
f 52/52/28 54/54/28 53/53/28
f 54/54/29 56/56/29 55/55/29
f 56/56/30 58/58/30 57/57/30
f 58/58/31 60/60/31 59/59/31
f 60/60/32 62/62/32 61/61/32
f 62/62/33 64/64/33 63/63/33
f 64/64/34 66/66/34 65/65/34
f 66/66/35 68/68/35 67/67/35
f 68/68/36 70/70/36 69/69/36
f 70/70/37 72/72/37 71/71/37
f 72/72/38 74/74/38 73/73/38
f 74/74/39 76/76/39 75/75/39
f 76/76/40 78/78/40 77/77/40
f 78/78/41 80/80/41 79/79/41
f 80/80/42 82/82/42 81/81/42
f 82/82/43 84/84/43 83/83/43
f 84/84/44 86/86/44 85/85/44
f 86/86/45 88/88/45 87/87/45
f 88/88/46 90/90/46 89/89/46
f 90/90/47 92/92/47 91/91/47
f 92/92/48 94/94/48 93/93/48
f 94/94/49 96/96/49 95/95/49
f 96/96/50 98/98/50 97/97/50
f 98/98/51 100/100/51 99/99/51
f 100/100/52 102/102/52 101/101/52
f 102/102/53 104/104/53 103/103/53
f 104/104/54 106/106/54 105/105/54
f 106/106/55 108/108/55 107/107/55
f 108/108/56 110/110/56 109/109/56
f 110/110/57 112/112/57 111/111/57
f 112/112/58 114/114/58 113/113/58
f 114/114/59 116/116/59 115/115/59
f 116/116/60 118/118/60 117/117/60
f 118/118/61 120/120/61 119/119/61
f 120/120/62 122/122/62 121/121/62
f 122/122/63 124/124/63 123/123/63
f 124/124/64 126/126/64 125/125/64
f 126/126/65 128/128/65 127/127/66
f 128/128/67 130/130/67 129/129/68
f 130/130/69 132/132/69 131/131/70
f 132/132/71 134/134/71 133/133/72
f 134/134/73 136/136/73 135/135/73
f 136/136/74 138/138/74 137/137/74
f 138/138/75 140/140/75 139/139/75
f 140/140/76 142/142/76 141/141/76
f 142/142/77 144/144/77 143/143/77
f 144/144/78 146/146/78 145/145/78
f 146/146/79 148/148/79 147/147/79
f 148/148/80 150/150/80 149/149/80
f 150/150/81 152/152/81 151/151/81
f 152/152/82 154/154/82 153/153/82
f 154/154/83 156/156/83 155/155/83
f 156/156/84 158/158/84 157/157/84
f 158/158/85 160/160/85 159/159/85
f 160/160/86 162/162/86 161/161/86
f 162/162/87 164/164/87 163/163/87
f 164/164/88 166/166/88 165/165/88
f 166/166/89 168/168/89 167/167/89
f 168/168/90 170/170/90 169/169/90
f 170/170/91 172/172/91 171/171/91
f 172/172/92 174/174/92 173/173/92
f 174/174/93 176/176/93 175/175/93
f 176/176/94 178/178/94 177/177/94
f 178/178/95 180/180/95 179/179/95
f 180/180/96 182/182/96 181/181/96
f 182/182/97 184/184/97 183/183/97
f 184/184/98 186/186/98 185/185/98
f 186/186/99 188/188/99 187/187/99
f 188/188/100 190/190/100 189/189/100
f 190/190/101 192/192/101 191/191/101
f 192/192/102 194/194/102 193/193/102
f 194/194/103 196/196/103 195/195/103
f 196/196/104 198/198/104 197/197/104
f 198/198/105 200/200/105 199/199/105
f 200/200/106 202/202/106 201/201/106
f 202/202/107 204/204/107 203/203/107
f 204/204/108 206/206/108 205/205/108
f 206/206/109 208/208/109 207/207/109
f 208/208/110 210/210/110 209/209/110
f 210/210/111 212/212/111 211/211/111
f 212/212/112 214/214/112 213/213/112
f 214/214/113 216/216/113 215/215/113
f 216/216/114 218/218/114 217/217/114
f 218/218/115 220/220/115 219/219/115
f 220/220/116 222/222/116 221/221/116
f 222/222/117 224/224/117 223/223/117
f 224/224/118 226/226/118 225/225/118
f 226/226/119 228/228/119 227/227/119
f 228/228/120 230/230/120 229/229/120
f 230/230/121 232/232/121 231/231/121
f 232/232/122 234/234/122 233/233/122
f 234/234/123 236/236/123 235/235/123
f 236/236/124 238/238/124 237/237/124
f 238/238/125 240/240/125 239/239/125
f 240/240/126 242/242/126 241/241/126
f 242/242/127 244/244/127 243/243/127
f 244/244/128 246/246/128 245/245/128
f 246/246/129 248/248/129 247/247/129
f 248/248/130 250/250/130 249/249/130
f 250/250/131 252/252/131 251/251/131
f 252/252/132 254/257/132 253/253/132
f 6/256/133 4/264/133 2/265/133
f 2/265/133 256/266/133 254/267/133
f 254/267/133 252/268/133 250/269/133
f 250/269/133 248/270/133 246/271/133
f 246/271/133 244/272/133 242/273/133
f 242/273/133 240/274/133 238/275/133
f 238/275/133 236/276/133 234/277/133
f 234/277/133 232/278/133 230/279/133
f 230/279/133 228/280/133 226/281/133
f 226/281/133 224/282/133 222/283/133
f 222/283/133 220/284/133 218/285/133
f 218/285/133 216/286/133 214/287/133
f 214/287/133 212/288/133 210/289/133
f 210/289/133 208/290/133 206/291/133
f 206/291/133 204/292/133 202/293/133
f 202/293/133 200/294/133 198/295/133
f 198/295/133 196/296/133 194/297/133
f 194/297/133 192/298/133 190/299/133
f 190/299/133 188/300/133 186/301/133
f 186/301/133 184/302/133 182/303/133
f 182/303/133 180/304/133 178/305/133
f 178/305/133 176/306/133 174/307/133
f 174/307/133 172/308/133 170/309/133
f 170/309/133 168/310/133 166/311/133
f 166/311/133 164/312/133 162/313/133
f 162/313/133 160/314/133 158/315/133
f 158/315/133 156/316/133 154/317/133
f 154/317/133 152/318/133 150/319/133
f 150/319/133 148/320/133 146/321/133
f 146/321/133 144/322/133 142/323/133
f 142/323/133 140/324/133 138/325/133
f 138/325/133 136/326/133 134/254/133
f 134/254/133 132/327/133 130/328/133
f 130/328/133 128/329/133 126/330/133
f 126/330/133 124/331/133 122/332/133
f 122/332/133 120/333/133 118/334/133
f 118/334/133 116/335/133 114/336/133
f 114/336/133 112/337/133 110/338/133
f 110/338/133 108/339/133 106/340/133
f 106/340/133 104/341/133 102/342/133
f 102/342/133 100/343/133 98/344/133
f 98/344/133 96/345/133 94/346/133
f 94/346/133 92/347/133 90/348/133
f 90/348/133 88/349/133 86/350/133
f 86/350/133 84/351/133 82/352/133
f 82/352/133 80/353/133 78/354/133
f 78/354/133 76/355/133 74/356/133
f 74/356/133 72/357/133 70/255/133
f 70/255/133 68/358/133 66/359/133
f 66/359/133 64/360/133 62/361/133
f 62/361/133 60/362/133 58/363/133
f 58/363/133 56/364/133 54/365/133
f 54/365/133 52/366/133 50/367/133
f 50/367/133 48/368/133 46/369/133
f 46/369/133 44/370/133 42/371/133
f 42/371/133 40/372/133 38/373/133
f 38/373/133 36/374/133 34/375/133
f 34/375/133 32/376/133 30/377/133
f 30/377/133 28/378/133 26/379/133
f 26/379/133 24/380/133 22/381/133
f 22/381/133 20/382/133 18/383/133
f 18/383/133 16/384/133 14/385/133
f 14/385/133 12/386/133 10/387/133
f 10/387/133 8/388/133 6/256/133
f 6/256/133 2/265/133 254/267/133
f 254/267/133 250/269/133 246/271/133
f 246/271/133 242/273/133 238/275/133
f 238/275/133 234/277/133 230/279/133
f 230/279/133 226/281/133 222/283/133
f 222/283/133 218/285/133 214/287/133
f 214/287/133 210/289/133 206/291/133
f 206/291/133 202/293/133 198/295/133
f 198/295/133 194/297/133 190/299/133
f 190/299/133 186/301/133 182/303/133
f 182/303/133 178/305/133 174/307/133
f 174/307/133 170/309/133 166/311/133
f 166/311/133 162/313/133 158/315/133
f 158/315/133 154/317/133 150/319/133
f 150/319/133 146/321/133 142/323/133
f 142/323/133 138/325/133 134/254/133
f 134/254/133 130/328/133 126/330/133
f 126/330/133 122/332/133 118/334/133
f 118/334/133 114/336/133 110/338/133
f 110/338/133 106/340/133 102/342/133
f 102/342/133 98/344/133 94/346/133
f 94/346/133 90/348/133 86/350/133
f 86/350/133 82/352/133 78/354/133
f 78/354/133 74/356/133 70/255/133
f 70/255/133 66/359/133 62/361/133
f 62/361/133 58/363/133 54/365/133
f 54/365/133 50/367/133 46/369/133
f 46/369/133 42/371/133 38/373/133
f 38/373/133 34/375/133 30/377/133
f 30/377/133 26/379/133 22/381/133
f 22/381/133 18/383/133 14/385/133
f 14/385/133 10/387/133 6/256/133
f 6/256/133 254/267/133 246/271/133
f 246/271/133 238/275/133 230/279/133
f 230/279/133 222/283/133 214/287/133
f 214/287/133 206/291/133 198/295/133
f 198/295/133 190/299/133 182/303/133
f 182/303/133 174/307/133 166/311/133
f 166/311/133 158/315/133 150/319/133
f 150/319/133 142/323/133 134/254/133
f 134/254/133 126/330/133 118/334/133
f 118/334/133 110/338/133 102/342/133
f 102/342/133 94/346/133 86/350/133
f 86/350/133 78/354/133 70/255/133
f 70/255/133 62/361/133 54/365/133
f 54/365/133 46/369/133 38/373/133
f 38/373/133 30/377/133 22/381/133
f 22/381/133 14/385/133 6/256/133
f 6/256/133 246/271/133 230/279/133
f 230/279/133 214/287/133 198/295/133
f 198/295/133 182/303/133 166/311/133
f 166/311/133 150/319/133 134/254/133
f 134/254/133 118/334/133 102/342/133
f 102/342/133 86/350/133 70/255/133
f 70/255/133 54/365/133 38/373/133
f 38/373/133 22/381/133 6/256/133
f 6/256/133 230/279/133 198/295/133
f 198/295/133 166/311/133 134/254/133
f 134/254/133 102/342/133 70/255/133
f 70/255/133 38/373/133 6/256/133
f 6/256/133 198/295/133 134/254/133
f 254/257/134 256/259/134 255/258/135
f 256/259/136 2/389/136 1/260/137
f 255/263/138 1/390/138 3/391/138
f 3/391/138 5/392/139 7/393/138
f 7/393/138 9/394/138 11/395/138
f 11/395/138 13/396/138 15/397/138
f 15/397/138 17/398/138 19/399/138
f 19/399/138 21/400/138 23/401/138
f 23/401/138 25/402/138 27/403/138
f 27/403/138 29/404/138 31/405/138
f 31/405/138 33/406/138 35/407/138
f 35/407/138 37/408/138 39/409/138
f 39/409/138 41/410/138 43/411/138
f 43/411/138 45/412/138 47/413/138
f 47/413/138 49/414/138 51/415/138
f 51/415/138 53/416/138 55/417/138
f 55/417/138 57/418/138 59/419/138
f 59/419/138 61/420/138 63/421/138
f 63/421/138 65/422/138 67/423/138
f 67/423/138 69/424/138 71/425/138
f 71/425/138 73/426/138 75/427/138
f 75/427/138 77/428/138 79/429/138
f 79/429/138 81/430/138 83/431/138
f 83/431/138 85/432/138 87/433/138
f 87/433/138 89/434/138 91/435/138
f 91/435/138 93/436/138 95/437/138
f 95/437/138 97/438/138 99/439/138
f 99/439/138 101/440/138 103/441/138
f 103/441/138 105/442/138 107/443/138
f 107/443/138 109/444/138 111/445/138
f 111/445/138 113/446/138 115/447/138
f 115/447/138 117/448/138 119/449/138
f 119/449/138 121/450/138 123/451/138
f 123/451/138 125/452/140 127/261/138
f 127/261/138 129/453/138 131/454/138
f 131/454/138 133/455/140 135/456/138
f 135/456/138 137/457/138 139/458/138
f 139/458/138 141/459/138 143/460/138
f 143/460/138 145/461/138 147/462/138
f 147/462/138 149/463/138 151/464/138
f 151/464/138 153/465/138 155/466/138
f 155/466/138 157/467/138 159/468/138
f 159/468/138 161/469/138 163/470/138
f 163/470/138 165/471/138 167/472/138
f 167/472/138 169/473/138 171/474/138
f 171/474/138 173/475/138 175/476/138
f 175/476/138 177/477/138 179/478/138
f 179/478/138 181/479/138 183/480/138
f 183/480/138 185/481/138 187/482/138
f 187/482/138 189/483/138 191/262/138
f 191/262/138 193/484/138 195/485/138
f 195/485/138 197/486/138 199/487/138
f 199/487/138 201/488/138 203/489/138
f 203/489/138 205/490/138 207/491/138
f 207/491/138 209/492/138 211/493/138
f 211/493/138 213/494/138 215/495/138
f 215/495/138 217/496/138 219/497/138
f 219/497/138 221/498/138 223/499/138
f 223/499/138 225/500/138 227/501/138
f 227/501/138 229/502/138 231/503/138
f 231/503/138 233/504/138 235/505/138
f 235/505/138 237/506/138 239/507/138
f 239/507/138 241/508/138 243/509/138
f 243/509/138 245/510/138 247/511/138
f 247/511/138 249/512/138 251/513/138
f 251/513/138 253/514/139 255/263/138
f 255/263/138 3/391/138 7/393/138
f 7/393/138 11/395/138 15/397/138
f 15/397/138 19/399/138 23/401/138
f 23/401/138 27/403/138 31/405/138
f 31/405/138 35/407/138 39/409/138
f 39/409/138 43/411/138 47/413/138
f 47/413/138 51/415/138 55/417/138
f 55/417/138 59/419/138 63/421/138
f 63/421/138 67/423/138 71/425/138
f 71/425/138 75/427/138 79/429/138
f 79/429/138 83/431/138 87/433/138
f 87/433/138 91/435/138 95/437/138
f 95/437/138 99/439/138 103/441/138
f 103/441/138 107/443/138 111/445/138
f 111/445/138 115/447/138 119/449/138
f 119/449/138 123/451/138 127/261/138
f 127/261/138 131/454/138 135/456/138
f 135/456/138 139/458/138 143/460/138
f 143/460/138 147/462/138 151/464/138
f 151/464/138 155/466/138 159/468/138
f 159/468/138 163/470/138 167/472/138
f 167/472/138 171/474/138 175/476/138
f 175/476/138 179/478/138 183/480/138
f 183/480/138 187/482/138 191/262/138
f 191/262/138 195/485/138 199/487/138
f 199/487/138 203/489/138 207/491/138
f 207/491/138 211/493/138 215/495/138
f 215/495/138 219/497/138 223/499/138
f 223/499/138 227/501/138 231/503/138
f 231/503/138 235/505/138 239/507/138
f 239/507/138 243/509/138 247/511/138
f 247/511/138 251/513/138 255/263/138
f 255/263/138 7/393/138 15/397/138
f 15/397/138 23/401/138 31/405/138
f 31/405/138 39/409/138 47/413/138
f 47/413/138 55/417/138 63/421/138
f 63/421/138 71/425/138 79/429/138
f 79/429/138 87/433/138 95/437/138
f 95/437/138 103/441/138 111/445/138
f 111/445/138 119/449/138 127/261/138
f 127/261/138 135/456/138 143/460/138
f 143/460/138 151/464/138 159/468/138
f 159/468/138 167/472/138 175/476/138
f 175/476/138 183/480/138 191/262/138
f 191/262/138 199/487/138 207/491/138
f 207/491/138 215/495/138 223/499/138
f 223/499/138 231/503/138 239/507/138
f 239/507/138 247/511/138 255/263/138
f 255/263/138 15/397/138 31/405/138
f 31/405/138 47/413/138 63/421/138
f 63/421/138 79/429/138 95/437/138
f 95/437/138 111/445/138 127/261/138
f 127/261/138 143/460/138 159/468/138
f 159/468/138 175/476/138 191/262/138
f 191/262/138 207/491/138 223/499/138
f 223/499/138 239/507/138 255/263/138
f 255/263/138 31/405/138 63/421/138
f 63/421/138 95/437/138 127/261/138
f 127/261/138 159/468/138 191/262/138
f 191/262/138 223/499/138 255/263/138
f 255/263/138 63/421/138 127/261/138
