# Cube with positions, UVs, and normals
mtllib none
o Cube

# Vertex positions (8 vertices)
v -0.5 -0.5  0.5
v  0.5 -0.5  0.5
v  0.5  0.5  0.5
v -0.5  0.5  0.5
v -0.5 -0.5 -0.5
v  0.5 -0.5 -0.5
v  0.5  0.5 -0.5
v -0.5  0.5 -0.5

# Texture coordinates (shared for each face)
vt 0.0 0.0
vt 1.0 0.0
vt 1.0 1.0
vt 0.0 1.0

# Normals
vn  0  0  1   # front
vn  1  0  0   # right
vn  0  0 -1   # back
vn -1  0  0   # left
vn  0  1  0   # top
vn  0 -1  0   # bottom

# Faces (each uses 4 vertices, written as two triangles)
# Format: f v_index/vt_index/vn_index

# Front face (vn=1)
f 1/1/1  2/2/1  3/3/1
f 1/1/1  3/3/1  4/4/1

# Right face (vn=2)
f 2/1/2  6/2/2  7/3/2
f 2/1/2  7/3/2  3/4/2

# Back face (vn=3)
f 6/1/3  5/2/3  8/3/3
f 6/1/3  8/3/3  7/4/3

# Left face (vn=4)
f 5/1/4  1/2/4  4/3/4
f 5/1/4  4/3/4  8/4/4

# Top face (vn=5)
f 4/1/5  3/2/5  7/3/5
f 4/1/5  7/3/5  8/4/5

# Bottom face (vn=6)
f 5/1/6  6/2/6  2/3/6
f 5/1/6  2/3/6  1/4/6
